<svg id="Layer_1" data-name="Layer 1" xmlns="http://www.w3.org/2000/svg" width="15px" viewBox="0 0 15 14.04"><defs><style>.cls-1{fill:#6b8179;}</style></defs><path class="cls-1" d="M.26,6.31l1-.36,1.57,4.32-1,.35S1,10.58.31,8.73.26,6.31.26,6.31Z" transform="translate(0 -0.33)"/><path class="cls-1" d="M1.72,5.77,3.3,10.1l.49-.17,1.43,3.93a.77.77,0,0,0,1,.46l1.35-.49A.77.77,0,0,0,8,12.69L5.83,9.26a10.48,10.48,0,0,1,4.66-.66L8.2,2.3C7.2,3.4,5.77,4.24,1.72,5.77Z" transform="translate(0 -0.33)"/><path class="cls-1" d="M9.57.44A.26.26,0,0,1,10,.51l1.24,3.41a.78.78,0,0,1,.54,1.46L13,8.78a.26.26,0,0,1-.3.36c-.63-.18-1.15-.33-1.66-.44L8.58,1.84C8.9,1.43,9.2,1,9.57.44Z" transform="translate(0 -0.33)"/><path class="cls-1" d="M14.78,3.83l-1.3.47a.33.33,0,0,1-.42-.2v0a.32.32,0,0,1,.2-.41l1.3-.47a.33.33,0,0,1,.42.19v0A.33.33,0,0,1,14.78,3.83Z" transform="translate(0 -0.33)"/><path class="cls-1" d="M14.4,6.65l-1.26-.57A.35.35,0,0,1,13,5.64v0a.33.33,0,0,1,.44-.15L14.68,6a.32.32,0,0,1,.16.44h0A.33.33,0,0,1,14.4,6.65Z" transform="translate(0 -0.33)"/><path class="cls-1" d="M13,1.57,12.45,2.8A.34.34,0,0,1,12,3h0a.31.31,0,0,1-.16-.43l.58-1.24a.35.35,0,0,1,.44-.16h0A.32.32,0,0,1,13,1.57Z" transform="translate(0 -0.33)"/></svg>