<svg id="Layer_1" data-name="Layer 1" xmlns="http://www.w3.org/2000/svg" width="15px" viewBox="0 0 15 15"><defs><style>.cls-1{fill:#68696a;}</style></defs><path class="cls-1" d="M14.44,11.93,6.74,4.58A3.46,3.46,0,0,0,2.61.17L4.85,2.41a.51.51,0,0,1,0,.74L3.08,4.92a.51.51,0,0,1-.74,0L.1,2.69A3.46,3.46,0,0,0,4.51,6.81l7.35,7.7a1.77,1.77,0,0,0,1.3.56A1.81,1.81,0,0,0,15,13.23,1.85,1.85,0,0,0,14.44,11.93Zm-.69,1.89a.85.85,0,0,1-1.2,0,.84.84,0,0,1,0-1.19.85.85,0,0,1,1.2,0A.84.84,0,0,1,13.75,13.82Zm-1-10.5.87-.45,1.17-1.61L14,.42,12.37,1.6l-.45.87L8.75,5.64l.87.84ZM3,13.75a.31.31,0,0,1-.44,0,.3.3,0,0,1,0-.44L6.3,9.59l-.62-.66L1.93,12.67a.31.31,0,0,1-.44-.44L5.25,8.48l-.63-.66-4,4A1.56,1.56,0,0,0,.63,14l.6.6a1.58,1.58,0,0,0,2.21,0l3.92-3.93L6.73,10Z" transform="translate(0 -0.07)"/></svg>