<svg id="svg" version="1.1" xmlns="http://www.w3.org/2000/svg" xmlns:xlink="http://www.w3.org/1999/xlink" width="15" viewBox="0, 0, 400,400"><g id="svgg"><path id="path0" d="M320.000 178.000 C 320.000 178.233,318.667 178.400,316.800 178.400 C 314.933 178.400,313.600 178.567,313.600 178.800 C 313.600 179.020,312.801 179.200,311.824 179.200 C 310.847 179.200,309.936 179.380,309.800 179.600 C 309.664 179.820,308.933 180.000,308.176 180.000 C 307.419 180.000,306.800 180.180,306.800 180.400 C 306.800 180.620,306.260 180.800,305.600 180.800 C 304.940 180.800,304.400 180.980,304.400 181.200 C 304.400 181.420,303.860 181.600,303.200 181.600 C 302.540 181.600,302.000 181.780,302.000 182.000 C 302.000 182.220,301.460 182.400,300.800 182.400 C 300.140 182.400,299.600 182.580,299.600 182.800 C 299.600 183.020,299.240 183.200,298.800 183.200 C 298.360 183.200,298.000 183.380,298.000 183.600 C 298.000 183.820,297.657 184.000,297.238 184.000 C 296.422 184.000,293.088 185.601,292.867 186.100 C 292.793 186.265,292.428 186.400,292.055 186.400 C 291.682 186.400,291.117 186.760,290.800 187.200 C 290.483 187.640,289.903 188.000,289.512 188.000 C 289.120 188.000,288.800 188.180,288.800 188.400 C 288.800 188.620,288.480 188.800,288.088 188.800 C 287.697 188.800,287.117 189.160,286.800 189.600 C 286.483 190.040,285.985 190.400,285.694 190.400 C 285.402 190.400,284.714 190.850,284.164 191.400 C 283.614 191.950,282.924 192.400,282.630 192.400 C 282.337 192.400,281.355 193.120,280.448 194.000 C 279.541 194.880,278.683 195.600,278.540 195.600 C 278.105 195.600,270.800 203.188,270.800 203.640 C 270.800 203.872,270.080 204.754,269.200 205.600 C 268.320 206.446,267.600 207.382,267.600 207.680 C 267.600 207.979,267.240 208.483,266.800 208.800 C 266.360 209.117,266.000 209.605,266.000 209.885 C 266.000 210.164,265.640 210.618,265.200 210.893 C 264.760 211.168,264.400 211.709,264.400 212.096 C 264.400 212.483,264.220 212.800,264.000 212.800 C 263.780 212.800,263.600 213.078,263.600 213.417 C 263.600 213.756,263.240 214.420,262.800 214.892 C 262.360 215.364,262.000 215.987,262.000 216.275 C 262.000 216.564,261.820 216.800,261.600 216.800 C 261.380 216.800,261.200 217.160,261.200 217.600 C 261.200 218.040,261.020 218.400,260.800 218.400 C 260.580 218.400,260.400 218.636,260.400 218.925 C 260.400 219.214,260.056 220.162,259.636 221.032 C 259.215 221.902,258.745 223.286,258.591 224.107 C 258.437 224.928,258.151 225.600,257.955 225.600 C 257.760 225.600,257.600 226.050,257.600 226.600 C 257.600 227.150,257.420 227.600,257.200 227.600 C 256.980 227.600,256.800 228.320,256.800 229.200 C 256.800 230.080,256.620 230.800,256.400 230.800 C 256.180 230.800,256.000 231.340,256.000 232.000 C 256.000 232.660,255.820 233.200,255.600 233.200 C 255.380 233.200,255.200 234.100,255.200 235.200 C 255.200 236.300,255.020 237.200,254.800 237.200 C 254.575 237.200,254.400 238.325,254.400 239.776 C 254.400 241.193,254.220 242.464,254.000 242.600 C 253.753 242.753,253.600 246.204,253.600 251.624 C 253.600 257.208,253.745 260.400,254.000 260.400 C 254.222 260.400,254.400 261.467,254.400 262.800 C 254.400 264.133,254.578 265.200,254.800 265.200 C 255.020 265.200,255.200 266.100,255.200 267.200 C 255.200 268.300,255.380 269.200,255.600 269.200 C 255.820 269.200,256.000 269.920,256.000 270.800 C 256.000 271.680,256.180 272.400,256.400 272.400 C 256.620 272.400,256.800 272.940,256.800 273.600 C 256.800 274.260,256.980 274.800,257.200 274.800 C 257.420 274.800,257.600 275.250,257.600 275.800 C 257.600 276.350,257.780 276.800,258.000 276.800 C 258.220 276.800,258.401 277.295,258.402 277.900 C 258.404 278.505,258.674 279.516,259.002 280.146 C 259.331 280.776,259.600 281.541,259.600 281.846 C 259.600 282.151,259.780 282.400,260.000 282.400 C 260.220 282.400,260.400 282.816,260.400 283.325 C 260.400 283.833,260.716 284.598,261.103 285.025 C 261.489 285.451,262.416 287.015,263.163 288.500 C 263.909 289.985,264.673 291.200,264.860 291.200 C 265.047 291.200,265.200 291.430,265.200 291.712 C 265.200 291.993,265.560 292.483,266.000 292.800 C 266.440 293.117,266.800 293.625,266.800 293.928 C 266.800 294.231,267.340 294.983,268.000 295.600 C 268.660 296.217,269.200 296.922,269.200 297.167 C 269.200 297.574,270.419 298.886,277.618 306.233 C 278.929 307.571,280.497 308.921,281.101 309.233 C 281.705 309.545,282.677 310.295,283.260 310.900 C 283.844 311.505,284.569 312.000,284.872 312.000 C 285.175 312.000,285.683 312.360,286.000 312.800 C 286.317 313.240,286.897 313.600,287.288 313.600 C 287.680 313.600,288.000 313.780,288.000 314.000 C 288.000 314.220,288.320 314.400,288.712 314.400 C 289.103 314.400,289.683 314.760,290.000 315.200 C 290.317 315.640,290.897 316.000,291.288 316.000 C 291.680 316.000,292.000 316.146,292.000 316.325 C 292.000 316.504,292.630 316.898,293.400 317.200 C 294.170 317.502,294.800 317.896,294.800 318.075 C 294.800 318.254,295.149 318.400,295.576 318.400 C 296.003 318.400,296.464 318.580,296.600 318.800 C 296.736 319.020,297.287 319.200,297.824 319.200 C 298.361 319.200,298.800 319.380,298.800 319.600 C 298.800 319.820,299.160 320.000,299.600 320.000 C 300.040 320.000,300.400 320.180,300.400 320.400 C 300.400 320.620,300.940 320.800,301.600 320.800 C 302.260 320.800,302.800 320.980,302.800 321.200 C 302.800 321.420,303.340 321.600,304.000 321.600 C 304.660 321.600,305.200 321.780,305.200 322.000 C 305.200 322.220,305.920 322.400,306.800 322.400 C 307.680 322.400,308.400 322.580,308.400 322.800 C 308.400 323.020,308.994 323.200,309.720 323.200 C 310.446 323.200,311.211 323.363,311.420 323.561 C 312.401 324.494,337.274 325.286,338.147 324.413 C 338.374 324.186,339.424 324.000,340.480 324.000 C 341.536 324.000,342.400 323.820,342.400 323.600 C 342.400 323.380,343.199 323.200,344.176 323.200 C 345.153 323.200,346.064 323.020,346.200 322.800 C 346.336 322.580,346.977 322.400,347.624 322.400 C 348.271 322.400,348.800 322.220,348.800 322.000 C 348.800 321.780,349.340 321.600,350.000 321.600 C 350.660 321.600,351.200 321.420,351.200 321.200 C 351.200 320.980,351.740 320.800,352.400 320.800 C 353.060 320.800,353.600 320.620,353.600 320.400 C 353.600 320.180,353.943 320.000,354.362 320.000 C 355.178 320.000,358.512 318.399,358.733 317.900 C 358.807 317.735,359.212 317.600,359.633 317.600 C 360.055 317.600,360.400 317.420,360.400 317.200 C 360.400 316.980,360.760 316.800,361.200 316.800 C 361.640 316.800,362.000 316.620,362.000 316.400 C 362.000 316.180,362.360 316.000,362.800 316.000 C 363.240 316.000,363.600 315.820,363.600 315.600 C 363.600 315.380,363.920 315.200,364.312 315.200 C 364.703 315.200,365.283 314.840,365.600 314.400 C 365.917 313.960,366.457 313.600,366.800 313.600 C 367.143 313.600,367.683 313.240,368.000 312.800 C 368.317 312.360,368.857 312.000,369.200 312.000 C 369.543 312.000,370.083 311.640,370.400 311.200 C 370.717 310.760,371.165 310.400,371.395 310.400 C 371.625 310.400,372.797 309.500,374.000 308.400 C 375.203 307.300,376.291 306.400,376.418 306.400 C 376.843 306.400,382.400 300.790,382.400 300.361 C 382.400 300.128,383.120 299.246,384.000 298.400 C 384.880 297.554,385.600 296.651,385.600 296.392 C 385.600 296.133,386.140 295.417,386.800 294.800 C 387.460 294.183,388.000 293.474,388.000 293.223 C 388.000 292.972,388.332 292.410,388.738 291.974 C 389.144 291.538,389.999 290.151,390.638 288.891 C 391.277 287.631,391.935 286.540,392.100 286.467 C 392.265 286.393,392.400 285.988,392.400 285.567 C 392.400 285.145,392.580 284.800,392.800 284.800 C 393.020 284.800,393.200 284.440,393.200 284.000 C 393.200 283.560,393.380 283.200,393.600 283.200 C 393.820 283.200,394.000 282.840,394.000 282.400 C 394.000 281.960,394.180 281.600,394.400 281.600 C 394.620 281.600,394.800 281.060,394.800 280.400 C 394.800 279.740,394.980 279.200,395.200 279.200 C 395.420 279.200,395.600 278.840,395.600 278.400 C 395.600 277.960,395.780 277.600,396.000 277.600 C 396.220 277.600,396.400 277.060,396.400 276.400 C 396.400 275.740,396.580 275.200,396.800 275.200 C 397.020 275.200,397.200 274.761,397.200 274.224 C 397.200 273.687,397.380 273.136,397.600 273.000 C 397.820 272.864,398.000 272.133,398.000 271.376 C 398.000 270.619,398.180 270.000,398.400 270.000 C 398.620 270.000,398.800 269.115,398.800 268.033 C 398.800 266.816,398.990 266.003,399.300 265.900 C 399.688 265.771,399.800 262.471,399.800 251.200 C 399.800 239.929,399.688 236.629,399.300 236.500 C 399.013 236.404,398.800 235.664,398.800 234.767 C 398.800 233.905,398.620 233.200,398.400 233.200 C 398.180 233.200,398.000 232.480,398.000 231.600 C 398.000 230.720,397.820 230.000,397.600 230.000 C 397.380 230.000,397.200 229.460,397.200 228.800 C 397.200 228.140,397.020 227.600,396.800 227.600 C 396.580 227.600,396.400 227.150,396.400 226.600 C 396.400 226.050,396.220 225.600,396.000 225.600 C 395.780 225.600,395.600 225.060,395.600 224.400 C 395.600 223.740,395.420 223.200,395.200 223.200 C 394.980 223.200,394.800 222.840,394.800 222.400 C 394.800 221.960,394.620 221.600,394.400 221.600 C 394.180 221.600,394.000 221.240,394.000 220.800 C 394.000 220.360,393.820 220.000,393.600 220.000 C 393.380 220.000,393.200 219.640,393.200 219.200 C 393.200 218.760,393.020 218.400,392.800 218.400 C 392.580 218.400,392.400 218.040,392.400 217.600 C 392.400 217.160,392.220 216.800,392.000 216.800 C 391.780 216.800,391.600 216.440,391.600 216.000 C 391.600 213.833,388.887 216.045,377.449 227.540 C 374.428 230.577,361.883 243.118,360.734 244.250 C 360.093 244.883,357.787 247.245,355.612 249.500 C 353.436 251.755,351.508 253.605,351.328 253.611 C 350.780 253.628,345.626 258.693,345.889 258.955 C 346.023 259.090,345.933 259.200,345.688 259.200 C 345.443 259.200,339.862 264.600,333.286 271.200 C 320.430 284.102,320.791 283.833,318.969 281.900 C 316.230 278.994,311.597 274.799,311.115 274.788 C 310.832 274.781,310.150 274.226,309.600 273.555 C 309.050 272.883,305.474 269.220,301.652 265.415 C 291.637 255.441,291.843 255.648,287.852 251.518 C 284.095 247.631,283.200 246.454,283.200 245.405 C 283.200 245.072,283.020 244.800,282.800 244.800 C 282.580 244.800,282.400 244.080,282.400 243.200 C 282.400 242.320,282.580 241.600,282.800 241.600 C 283.020 241.600,283.200 241.150,283.200 240.600 C 283.200 240.050,283.335 239.596,283.500 239.591 C 283.665 239.585,284.330 238.865,284.977 237.991 C 285.624 237.116,286.389 236.400,286.677 236.400 C 286.965 236.400,287.200 236.220,287.200 236.000 C 287.200 235.780,287.560 235.600,288.000 235.600 C 288.440 235.600,288.800 235.420,288.800 235.200 C 288.800 233.118,295.044 235.518,298.691 239.000 C 302.947 243.065,308.518 248.588,310.230 250.438 C 314.147 254.673,319.634 259.600,320.433 259.600 C 321.007 259.600,325.592 255.271,334.835 246.000 C 342.293 238.520,348.621 232.389,348.897 232.375 C 349.174 232.360,350.570 231.110,352.000 229.596 C 353.430 228.082,355.919 225.528,357.531 223.921 C 362.432 219.037,370.830 210.634,373.911 207.531 C 375.511 205.919,377.528 203.970,378.392 203.200 C 380.663 201.176,380.511 200.499,377.006 196.994 C 375.360 195.347,373.901 194.000,373.764 194.000 C 373.627 194.000,372.981 193.550,372.327 193.000 C 371.673 192.450,370.922 192.000,370.658 192.000 C 370.393 192.000,369.917 191.640,369.600 191.200 C 369.283 190.760,368.743 190.400,368.400 190.400 C 368.057 190.400,367.517 190.040,367.200 189.600 C 366.883 189.160,366.343 188.800,366.000 188.800 C 365.657 188.800,365.117 188.440,364.800 188.000 C 364.483 187.560,363.903 187.200,363.512 187.200 C 363.120 187.200,362.800 187.020,362.800 186.800 C 362.800 186.580,362.440 186.400,362.000 186.400 C 361.560 186.400,361.200 186.220,361.200 186.000 C 361.200 185.780,360.855 185.600,360.433 185.600 C 360.012 185.600,359.607 185.465,359.533 185.300 C 359.312 184.801,355.978 183.200,355.162 183.200 C 354.743 183.200,354.400 183.020,354.400 182.800 C 354.400 182.580,353.860 182.400,353.200 182.400 C 352.540 182.400,352.000 182.220,352.000 182.000 C 352.000 181.780,351.460 181.600,350.800 181.600 C 350.140 181.600,349.600 181.420,349.600 181.200 C 349.600 180.980,349.060 180.800,348.400 180.800 C 347.740 180.800,347.200 180.620,347.200 180.400 C 347.200 180.180,346.480 180.000,345.600 180.000 C 344.720 180.000,344.000 179.820,344.000 179.600 C 344.000 179.380,343.201 179.200,342.224 179.200 C 341.247 179.200,340.336 179.020,340.200 178.800 C 340.064 178.580,338.804 178.400,337.400 178.400 C 335.996 178.400,334.736 178.220,334.600 178.000 C 334.450 177.757,331.529 177.600,327.176 177.600 C 322.659 177.600,320.000 177.748,320.000 178.000 " stroke="none" fill="#04bce4" fill-rule="evenodd"></path><path id="path1" d="M246.400 72.800 C 246.400 73.031,245.133 73.200,243.400 73.200 C 241.667 73.200,240.400 73.369,240.400 73.600 C 240.400 73.822,239.333 74.000,238.000 74.000 C 236.667 74.000,235.600 74.178,235.600 74.400 C 235.600 74.620,234.847 74.800,233.926 74.800 C 232.124 74.800,227.441 75.795,226.305 76.418 C 225.923 76.628,225.248 76.800,224.805 76.800 C 224.362 76.800,224.000 76.980,224.000 77.200 C 224.000 77.420,223.460 77.600,222.800 77.600 C 222.140 77.600,221.600 77.780,221.600 78.000 C 221.600 78.220,221.060 78.400,220.400 78.400 C 219.740 78.400,219.200 78.580,219.200 78.800 C 219.200 79.020,218.660 79.200,218.000 79.200 C 217.340 79.200,216.800 79.380,216.800 79.600 C 216.800 79.820,216.440 80.000,216.000 80.000 C 215.560 80.000,215.200 80.180,215.200 80.400 C 215.200 80.620,214.840 80.800,214.400 80.800 C 213.960 80.800,213.600 80.980,213.600 81.200 C 213.600 81.420,213.240 81.600,212.800 81.600 C 212.360 81.600,212.000 81.780,212.000 82.000 C 212.000 82.220,211.640 82.400,211.200 82.400 C 210.760 82.400,210.400 82.546,210.400 82.725 C 210.400 82.904,209.770 83.298,209.000 83.600 C 208.230 83.902,207.600 84.296,207.600 84.475 C 207.600 84.654,207.240 84.800,206.800 84.800 C 206.360 84.800,206.000 84.980,206.000 85.200 C 206.000 85.420,205.640 85.600,205.200 85.600 C 204.760 85.600,204.400 85.780,204.400 86.000 C 204.400 86.220,204.080 86.400,203.688 86.400 C 203.297 86.400,202.717 86.760,202.400 87.200 C 202.083 87.640,201.543 88.000,201.200 88.000 C 200.857 88.000,200.317 88.360,200.000 88.800 C 199.683 89.240,199.143 89.600,198.800 89.600 C 198.457 89.600,197.917 89.960,197.600 90.400 C 197.283 90.840,196.781 91.200,196.485 91.200 C 196.189 91.200,195.284 91.828,194.473 92.597 C 193.663 93.365,192.853 93.995,192.674 93.997 C 192.495 93.998,191.471 94.900,190.400 96.000 C 189.329 97.100,188.257 98.000,188.020 98.000 C 187.466 98.000,181.600 103.850,181.600 104.402 C 181.600 104.631,180.655 105.786,179.500 106.970 C 176.792 109.746,174.800 112.222,174.800 112.813 C 174.800 113.069,174.260 113.783,173.600 114.400 C 172.940 115.017,172.400 115.769,172.400 116.072 C 172.400 116.375,172.040 116.883,171.600 117.200 C 171.160 117.517,170.800 118.097,170.800 118.488 C 170.800 118.880,170.620 119.200,170.400 119.200 C 170.180 119.200,170.000 119.483,170.000 119.829 C 170.000 120.705,168.719 121.957,168.499 121.296 C 168.408 121.023,167.988 120.800,167.567 120.800 C 167.145 120.800,166.800 120.620,166.800 120.400 C 166.800 120.180,166.260 120.000,165.600 120.000 C 164.940 120.000,164.400 119.820,164.400 119.600 C 164.400 119.380,164.040 119.200,163.600 119.200 C 163.160 119.200,162.800 119.020,162.800 118.800 C 162.800 118.580,162.260 118.400,161.600 118.400 C 160.940 118.400,160.400 118.220,160.400 118.000 C 160.400 117.780,159.770 117.600,159.000 117.600 C 158.230 117.600,157.600 117.420,157.600 117.200 C 157.600 116.980,157.071 116.800,156.424 116.800 C 155.777 116.800,155.136 116.620,155.000 116.400 C 154.864 116.180,153.773 116.000,152.576 116.000 C 151.379 116.000,150.400 115.820,150.400 115.600 C 150.400 115.367,149.067 115.200,147.200 115.200 C 145.333 115.200,144.000 115.033,144.000 114.800 C 144.000 114.555,142.067 114.400,139.000 114.400 C 135.933 114.400,134.000 114.555,134.000 114.800 C 134.000 115.035,132.608 115.200,130.624 115.200 C 128.767 115.200,127.136 115.380,127.000 115.600 C 126.864 115.820,125.953 116.000,124.976 116.000 C 123.999 116.000,123.200 116.180,123.200 116.400 C 123.200 116.620,122.480 116.800,121.600 116.800 C 120.720 116.800,120.000 116.980,120.000 117.200 C 120.000 117.420,119.460 117.600,118.800 117.600 C 118.140 117.600,117.600 117.780,117.600 118.000 C 117.600 118.220,117.060 118.400,116.400 118.400 C 115.740 118.400,115.200 118.580,115.200 118.800 C 115.200 119.020,114.660 119.200,114.000 119.200 C 113.340 119.200,112.800 119.380,112.800 119.600 C 112.800 119.820,112.440 120.000,112.000 120.000 C 111.560 120.000,111.200 120.180,111.200 120.400 C 111.200 120.620,110.750 120.800,110.200 120.800 C 109.650 120.800,109.200 120.980,109.200 121.200 C 109.200 121.420,108.840 121.600,108.400 121.600 C 107.960 121.600,107.600 121.780,107.600 122.000 C 107.600 122.220,107.240 122.400,106.800 122.400 C 106.360 122.400,106.000 122.580,106.000 122.800 C 106.000 123.020,105.680 123.200,105.288 123.200 C 104.897 123.200,104.317 123.560,104.000 124.000 C 103.683 124.440,103.114 124.800,102.735 124.800 C 102.357 124.800,101.939 124.975,101.807 125.189 C 101.674 125.403,100.944 125.874,100.183 126.235 C 99.422 126.596,98.800 127.051,98.800 127.246 C 98.800 127.441,98.557 127.600,98.259 127.600 C 97.962 127.600,97.154 128.140,96.463 128.800 C 95.772 129.460,95.082 130.000,94.928 130.000 C 94.447 130.000,84.800 140.018,84.796 140.522 C 84.794 140.785,84.254 141.425,83.596 141.945 C 82.938 142.465,82.400 143.100,82.400 143.357 C 82.400 143.613,82.040 144.083,81.600 144.400 C 81.160 144.717,80.800 145.257,80.800 145.600 C 80.800 145.943,80.440 146.483,80.000 146.800 C 79.560 147.117,79.200 147.697,79.200 148.088 C 79.200 148.480,79.039 148.800,78.842 148.800 C 78.340 148.800,75.312 155.195,74.983 156.951 C 74.833 157.748,74.551 158.400,74.355 158.400 C 74.160 158.400,74.000 158.850,74.000 159.400 C 74.000 159.950,73.820 160.400,73.600 160.400 C 73.380 160.400,73.200 160.940,73.200 161.600 C 73.200 162.260,73.020 162.800,72.800 162.800 C 72.580 162.800,72.400 163.340,72.400 164.000 C 72.400 164.660,72.220 165.200,72.000 165.200 C 71.780 165.200,71.600 165.920,71.600 166.800 C 71.600 167.680,71.420 168.400,71.200 168.400 C 70.980 168.400,70.800 169.223,70.800 170.229 C 70.800 172.742,70.218 173.200,67.029 173.200 C 65.543 173.200,64.400 173.374,64.400 173.600 C 64.400 173.820,63.500 174.000,62.400 174.000 C 61.300 174.000,60.400 174.155,60.400 174.345 C 60.400 174.535,59.365 174.810,58.100 174.958 C 55.800 175.226,53.613 175.789,52.305 176.449 C 51.923 176.642,51.259 176.800,50.829 176.800 C 50.399 176.800,49.936 176.980,49.800 177.200 C 49.664 177.420,49.203 177.600,48.776 177.600 C 48.349 177.600,48.000 177.780,48.000 178.000 C 48.000 178.220,47.665 178.400,47.256 178.400 C 46.454 178.400,41.487 180.805,41.267 181.300 C 41.193 181.465,40.788 181.600,40.367 181.600 C 39.945 181.600,39.600 181.780,39.600 182.000 C 39.600 182.220,39.280 182.400,38.888 182.400 C 38.497 182.400,37.917 182.760,37.600 183.200 C 37.283 183.640,36.703 184.000,36.312 184.000 C 35.920 184.000,35.600 184.180,35.600 184.400 C 35.600 184.620,35.280 184.800,34.888 184.800 C 34.497 184.800,33.917 185.160,33.600 185.600 C 33.283 186.040,32.775 186.400,32.472 186.400 C 32.169 186.400,31.417 186.940,30.800 187.600 C 30.183 188.260,29.473 188.800,29.222 188.800 C 28.971 188.800,27.783 189.790,26.583 191.000 C 25.382 192.210,24.249 193.200,24.064 193.200 C 23.537 193.200,20.000 196.666,20.000 197.183 C 20.000 197.436,18.920 198.704,17.600 200.000 C 16.280 201.296,15.200 202.563,15.200 202.817 C 15.200 203.071,14.660 203.783,14.000 204.400 C 13.340 205.017,12.800 205.743,12.800 206.014 C 12.800 206.284,12.484 206.797,12.097 207.153 C 11.711 207.509,11.126 208.340,10.797 209.000 C 10.469 209.660,9.795 210.810,9.300 211.556 C 8.805 212.302,8.400 213.247,8.400 213.656 C 8.400 214.065,8.220 214.400,8.000 214.400 C 7.780 214.400,7.600 214.760,7.600 215.200 C 7.600 215.640,7.420 216.000,7.200 216.000 C 6.980 216.000,6.800 216.360,6.800 216.800 C 6.800 217.240,6.620 217.600,6.400 217.600 C 6.180 217.600,6.000 217.960,6.000 218.400 C 6.000 218.840,5.820 219.200,5.600 219.200 C 5.380 219.200,5.200 219.740,5.200 220.400 C 5.200 221.060,5.020 221.600,4.800 221.600 C 4.580 221.600,4.400 221.960,4.400 222.400 C 4.400 222.840,4.220 223.200,4.000 223.200 C 3.780 223.200,3.600 223.740,3.600 224.400 C 3.600 225.060,3.420 225.600,3.200 225.600 C 2.980 225.600,2.800 226.050,2.800 226.600 C 2.800 227.150,2.620 227.600,2.400 227.600 C 2.180 227.600,2.000 228.320,2.000 229.200 C 2.000 230.080,1.820 230.800,1.600 230.800 C 1.380 230.800,1.200 231.505,1.200 232.367 C 1.200 233.264,0.987 234.005,0.700 234.100 C 0.310 234.230,0.200 238.009,0.200 251.200 C 0.200 264.391,0.310 268.170,0.700 268.300 C 0.987 268.396,1.200 269.136,1.200 270.033 C 1.200 270.895,1.380 271.600,1.600 271.600 C 1.820 271.600,2.000 272.230,2.000 273.000 C 2.000 273.770,2.180 274.400,2.400 274.400 C 2.620 274.400,2.800 274.940,2.800 275.600 C 2.800 276.260,2.980 276.800,3.200 276.800 C 3.420 276.800,3.600 277.340,3.600 278.000 C 3.600 278.660,3.780 279.200,4.000 279.200 C 4.220 279.200,4.400 279.560,4.400 280.000 C 4.400 280.440,4.580 280.800,4.800 280.800 C 5.020 280.800,5.200 281.340,5.200 282.000 C 5.200 282.660,5.380 283.200,5.600 283.200 C 5.820 283.200,6.000 283.560,6.000 284.000 C 6.000 284.440,6.180 284.800,6.400 284.800 C 6.620 284.800,6.800 285.160,6.800 285.600 C 6.800 286.040,6.980 286.400,7.200 286.400 C 7.420 286.400,7.600 286.760,7.600 287.200 C 7.600 287.640,7.780 288.000,8.000 288.000 C 8.220 288.000,8.400 288.338,8.400 288.751 C 8.400 289.164,8.670 289.726,9.000 290.000 C 9.330 290.274,9.600 290.746,9.600 291.049 C 9.600 291.352,9.780 291.600,10.000 291.600 C 10.220 291.600,10.400 291.920,10.400 292.312 C 10.400 292.703,10.760 293.283,11.200 293.600 C 11.640 293.917,12.000 294.457,12.000 294.800 C 12.000 295.143,12.360 295.683,12.800 296.000 C 13.240 296.317,13.600 296.825,13.600 297.128 C 13.600 297.431,14.140 298.183,14.800 298.800 C 15.460 299.417,16.000 300.125,16.000 300.374 C 16.000 300.743,18.167 302.972,24.496 309.113 C 24.659 309.271,25.521 310.165,26.411 311.100 C 27.302 312.035,28.222 312.800,28.455 312.800 C 28.688 312.800,29.383 313.340,30.000 314.000 C 30.617 314.660,31.369 315.200,31.672 315.200 C 31.975 315.200,32.483 315.560,32.800 316.000 C 33.117 316.440,33.657 316.800,34.000 316.800 C 34.343 316.800,34.883 317.160,35.200 317.600 C 35.517 318.040,36.097 318.400,36.488 318.400 C 36.880 318.400,37.200 318.580,37.200 318.800 C 37.200 319.020,37.560 319.200,38.000 319.200 C 38.440 319.200,38.800 319.380,38.800 319.600 C 38.800 319.820,39.120 320.000,39.512 320.000 C 39.903 320.000,40.483 320.360,40.800 320.800 C 41.117 321.240,41.697 321.600,42.088 321.600 C 42.480 321.600,42.800 321.780,42.800 322.000 C 42.800 322.220,43.250 322.400,43.800 322.400 C 44.350 322.400,44.800 322.580,44.800 322.800 C 44.800 323.020,45.036 323.200,45.325 323.200 C 45.614 323.200,46.601 323.563,47.520 324.007 C 48.439 324.451,50.002 324.925,50.995 325.061 C 51.988 325.197,52.800 325.464,52.800 325.654 C 52.800 325.844,53.340 326.000,54.000 326.000 C 54.660 326.000,55.200 326.180,55.200 326.400 C 55.200 326.620,55.920 326.800,56.800 326.800 C 57.680 326.800,58.400 326.980,58.400 327.200 C 58.400 327.420,59.030 327.600,59.800 327.600 C 60.570 327.600,61.200 327.780,61.200 328.000 C 61.200 328.266,96.400 328.400,166.000 328.400 L 270.800 328.400 270.789 327.500 C 270.782 326.888,270.269 326.286,269.189 325.620 C 268.315 325.080,267.600 324.495,267.600 324.320 C 267.600 324.144,267.316 324.000,266.969 324.000 C 266.621 324.000,265.646 323.280,264.800 322.400 C 263.954 321.520,263.060 320.800,262.812 320.800 C 262.379 320.800,260.624 319.075,253.908 312.050 L 250.816 308.817 158.142 308.708 C 84.434 308.622,65.433 308.498,65.300 308.100 C 65.204 307.813,64.464 307.600,63.567 307.600 C 62.705 307.600,62.000 307.420,62.000 307.200 C 62.000 306.980,61.280 306.800,60.400 306.800 C 59.520 306.800,58.800 306.620,58.800 306.400 C 58.800 306.180,58.350 306.000,57.800 306.000 C 57.250 306.000,56.800 305.820,56.800 305.600 C 56.800 305.380,56.440 305.200,56.000 305.200 C 55.560 305.200,55.200 305.020,55.200 304.800 C 55.200 304.580,54.840 304.400,54.400 304.400 C 53.960 304.400,53.600 304.220,53.600 304.000 C 53.600 303.780,53.240 303.600,52.800 303.600 C 52.360 303.600,52.000 303.420,52.000 303.200 C 52.000 302.980,51.640 302.800,51.200 302.800 C 50.760 302.800,50.400 302.620,50.400 302.400 C 50.400 302.180,50.040 302.000,49.600 302.000 C 49.160 302.000,48.800 301.820,48.800 301.600 C 48.800 301.380,48.440 301.200,48.000 301.200 C 47.560 301.200,47.200 301.020,47.200 300.800 C 47.200 300.580,46.880 300.400,46.488 300.400 C 46.097 300.400,45.517 300.040,45.200 299.600 C 44.883 299.160,44.379 298.800,44.080 298.800 C 43.782 298.800,42.846 298.080,42.000 297.200 C 41.154 296.320,40.365 295.600,40.247 295.600 C 40.028 295.600,37.979 293.761,34.369 290.326 C 33.286 289.295,32.400 288.246,32.400 287.995 C 32.400 287.743,31.680 286.846,30.800 286.000 C 29.920 285.154,29.200 284.218,29.200 283.920 C 29.200 283.621,28.840 283.117,28.400 282.800 C 27.960 282.483,27.600 281.903,27.600 281.512 C 27.600 281.120,27.420 280.800,27.200 280.800 C 26.980 280.800,26.800 280.480,26.800 280.088 C 26.800 279.697,26.440 279.117,26.000 278.800 C 25.560 278.483,25.200 277.975,25.200 277.672 C 25.200 277.150,24.364 275.018,23.566 273.505 C 23.365 273.123,23.200 272.538,23.200 272.205 C 23.200 271.872,23.020 271.600,22.800 271.600 C 22.580 271.600,22.400 271.060,22.400 270.400 C 22.400 269.740,22.220 269.200,22.000 269.200 C 21.780 269.200,21.600 268.660,21.600 268.000 C 21.600 267.340,21.420 266.800,21.200 266.800 C 20.980 266.800,20.800 266.080,20.800 265.200 C 20.800 264.320,20.620 263.600,20.400 263.600 C 20.180 263.600,20.000 262.801,20.000 261.824 C 20.000 260.847,19.820 259.936,19.600 259.800 C 19.056 259.464,19.056 242.400,19.600 242.400 C 19.820 242.400,20.000 241.601,20.000 240.624 C 20.000 239.647,20.180 238.736,20.400 238.600 C 20.620 238.464,20.800 237.733,20.800 236.976 C 20.800 236.219,20.980 235.600,21.200 235.600 C 21.420 235.600,21.600 235.071,21.600 234.424 C 21.600 233.777,21.780 233.136,22.000 233.000 C 22.220 232.864,22.400 232.313,22.400 231.776 C 22.400 231.239,22.580 230.800,22.800 230.800 C 23.020 230.800,23.200 230.260,23.200 229.600 C 23.200 228.940,23.380 228.400,23.600 228.400 C 23.820 228.400,24.000 228.040,24.000 227.600 C 24.000 227.160,24.160 226.800,24.355 226.800 C 24.551 226.800,24.829 226.170,24.974 225.400 C 25.118 224.630,25.408 224.000,25.618 224.000 C 25.828 224.000,26.000 223.680,26.000 223.288 C 26.000 222.897,26.360 222.317,26.800 222.000 C 27.240 221.683,27.600 221.103,27.600 220.712 C 27.600 220.320,27.780 220.000,28.000 220.000 C 28.220 220.000,28.400 219.712,28.400 219.360 C 28.400 219.009,28.940 218.217,29.600 217.600 C 30.260 216.983,30.800 216.265,30.800 216.004 C 30.800 215.463,41.175 205.200,41.722 205.200 C 41.918 205.200,42.583 204.660,43.200 204.000 C 43.817 203.340,44.569 202.800,44.872 202.800 C 45.175 202.800,45.683 202.440,46.000 202.000 C 46.317 201.560,46.897 201.200,47.288 201.200 C 47.680 201.200,48.000 201.020,48.000 200.800 C 48.000 200.580,48.360 200.400,48.800 200.400 C 49.240 200.400,49.600 200.220,49.600 200.000 C 49.600 199.780,49.960 199.600,50.400 199.600 C 50.840 199.600,51.200 199.420,51.200 199.200 C 51.200 198.980,51.560 198.800,52.000 198.800 C 52.440 198.800,52.800 198.620,52.800 198.400 C 52.800 198.180,53.160 198.000,53.600 198.000 C 54.040 198.000,54.400 197.820,54.400 197.600 C 54.400 197.380,54.760 197.200,55.200 197.200 C 55.640 197.200,56.000 197.020,56.000 196.800 C 56.000 196.580,56.540 196.400,57.200 196.400 C 57.860 196.400,58.400 196.220,58.400 196.000 C 58.400 195.780,58.850 195.600,59.400 195.600 C 59.950 195.600,60.400 195.420,60.400 195.200 C 60.400 194.980,61.120 194.800,62.000 194.800 C 62.880 194.800,63.600 194.620,63.600 194.400 C 63.600 194.180,64.320 194.000,65.200 194.000 C 66.080 194.000,66.800 193.820,66.800 193.600 C 66.800 193.367,68.133 193.200,70.000 193.200 C 71.867 193.200,73.200 193.033,73.200 192.800 C 73.200 192.559,74.867 192.400,77.400 192.400 C 79.933 192.400,81.600 192.559,81.600 192.800 C 81.600 193.040,83.200 193.200,85.600 193.200 L 89.600 193.200 89.600 188.200 C 89.600 185.133,89.755 183.200,90.000 183.200 C 90.237 183.200,90.400 181.741,90.400 179.624 C 90.400 177.657,90.556 175.951,90.747 175.832 C 90.939 175.714,91.219 174.354,91.372 172.809 C 91.524 171.264,91.818 170.000,92.024 170.000 C 92.231 170.000,92.400 169.460,92.400 168.800 C 92.400 168.140,92.580 167.600,92.800 167.600 C 93.020 167.600,93.200 167.060,93.200 166.400 C 93.200 165.740,93.380 165.200,93.600 165.200 C 93.820 165.200,94.000 164.840,94.000 164.400 C 94.000 163.960,94.180 163.600,94.400 163.600 C 94.620 163.600,94.800 163.240,94.800 162.800 C 94.800 162.360,94.980 162.000,95.200 162.000 C 95.420 162.000,95.600 161.640,95.600 161.200 C 95.600 160.760,95.780 160.400,96.000 160.400 C 96.220 160.400,96.400 160.083,96.400 159.696 C 96.400 159.309,96.760 158.768,97.200 158.493 C 97.640 158.218,98.000 157.764,98.000 157.485 C 98.000 157.205,98.360 156.717,98.800 156.400 C 99.240 156.083,99.600 155.585,99.600 155.295 C 99.600 155.004,101.670 152.684,104.200 150.140 C 106.730 147.596,108.800 145.354,108.800 145.157 C 108.800 144.961,109.120 144.800,109.512 144.800 C 109.903 144.800,110.483 144.440,110.800 144.000 C 111.117 143.560,111.657 143.200,112.000 143.200 C 112.343 143.200,112.883 142.840,113.200 142.400 C 113.517 141.960,114.052 141.599,114.388 141.598 C 114.725 141.597,115.886 141.147,116.968 140.598 C 118.050 140.049,119.175 139.600,119.468 139.600 C 119.761 139.600,120.000 139.420,120.000 139.200 C 120.000 138.980,120.360 138.800,120.800 138.800 C 121.240 138.800,121.600 138.620,121.600 138.400 C 121.600 138.180,122.039 138.000,122.576 138.000 C 123.113 138.000,123.664 137.820,123.800 137.600 C 123.936 137.380,124.667 137.200,125.424 137.200 C 126.181 137.200,126.800 137.020,126.800 136.800 C 126.800 136.580,127.520 136.400,128.400 136.400 C 129.280 136.400,130.000 136.220,130.000 136.000 C 130.000 135.771,131.200 135.600,132.800 135.600 C 134.400 135.600,135.600 135.429,135.600 135.200 C 135.600 134.967,136.933 134.800,138.800 134.800 C 140.667 134.800,142.000 134.967,142.000 135.200 C 142.000 135.425,143.125 135.600,144.576 135.600 C 145.993 135.600,147.264 135.780,147.400 136.000 C 147.536 136.220,148.447 136.400,149.424 136.400 C 150.401 136.400,151.200 136.580,151.200 136.800 C 151.200 137.020,151.740 137.200,152.400 137.200 C 153.060 137.200,153.600 137.380,153.600 137.600 C 153.600 137.820,154.140 138.000,154.800 138.000 C 155.460 138.000,156.000 138.180,156.000 138.400 C 156.000 138.620,156.360 138.800,156.800 138.800 C 157.240 138.800,157.600 138.980,157.600 139.200 C 157.600 139.420,157.852 139.600,158.159 139.600 C 158.467 139.600,159.502 140.048,160.459 140.595 C 161.417 141.143,162.515 141.593,162.900 141.595 C 163.285 141.598,163.600 141.780,163.600 142.000 C 163.600 142.220,163.888 142.400,164.240 142.400 C 164.591 142.400,165.383 142.940,166.000 143.600 C 166.617 144.260,167.369 144.800,167.672 144.800 C 167.975 144.800,168.483 145.160,168.800 145.600 C 169.117 146.040,169.625 146.400,169.928 146.400 C 170.231 146.400,170.983 146.940,171.600 147.600 C 172.217 148.260,172.969 148.800,173.272 148.800 C 173.575 148.800,174.083 149.160,174.400 149.600 C 174.717 150.040,175.207 150.400,175.488 150.400 C 175.770 150.400,176.000 150.580,176.000 150.800 C 176.000 151.394,177.173 151.284,177.829 150.629 C 178.143 150.314,178.400 149.774,178.400 149.429 C 178.400 149.083,178.580 148.800,178.800 148.800 C 179.020 148.800,179.200 148.440,179.200 148.000 C 179.200 147.560,179.380 147.200,179.600 147.200 C 179.820 147.200,180.000 146.660,180.000 146.000 C 180.000 145.340,180.180 144.800,180.400 144.800 C 180.620 144.800,180.800 144.440,180.800 144.000 C 180.800 143.560,180.980 143.200,181.200 143.200 C 181.420 143.200,181.600 142.855,181.600 142.433 C 181.600 142.012,181.736 141.607,181.902 141.533 C 182.068 141.460,182.832 140.140,183.600 138.600 C 184.368 137.060,185.132 135.740,185.298 135.667 C 185.464 135.593,185.600 135.188,185.600 134.767 C 185.600 134.345,185.780 134.000,186.000 134.000 C 186.220 134.000,186.400 133.640,186.400 133.200 C 186.400 132.760,186.580 132.400,186.800 132.400 C 187.020 132.400,187.200 132.080,187.200 131.688 C 187.200 131.297,187.560 130.717,188.000 130.400 C 188.440 130.083,188.800 129.543,188.800 129.200 C 188.800 128.857,189.160 128.317,189.600 128.000 C 190.040 127.683,190.400 127.185,190.400 126.894 C 190.400 126.603,190.850 125.880,191.400 125.287 C 191.950 124.693,192.400 124.060,192.400 123.878 C 192.400 123.697,193.300 122.671,194.400 121.600 C 195.500 120.529,196.400 119.457,196.400 119.219 C 196.400 118.653,201.453 113.600,202.019 113.600 C 202.257 113.600,203.329 112.700,204.400 111.600 C 205.471 110.500,206.513 109.600,206.716 109.600 C 206.918 109.600,207.524 109.195,208.063 108.700 C 208.602 108.205,209.528 107.545,210.121 107.232 C 210.715 106.920,211.200 106.515,211.200 106.332 C 211.200 106.150,211.436 106.000,211.725 106.000 C 212.013 106.000,212.636 105.640,213.108 105.200 C 213.580 104.760,214.244 104.400,214.583 104.400 C 214.922 104.400,215.200 104.220,215.200 104.000 C 215.200 103.780,215.560 103.600,216.000 103.600 C 216.440 103.600,216.800 103.420,216.800 103.200 C 216.800 102.980,217.120 102.800,217.512 102.800 C 217.903 102.800,218.483 102.440,218.800 102.000 C 219.117 101.560,219.697 101.200,220.088 101.200 C 220.480 101.200,220.800 101.020,220.800 100.800 C 220.800 100.580,221.143 100.400,221.562 100.400 C 222.378 100.400,225.712 98.799,225.933 98.300 C 226.007 98.135,226.592 98.000,227.233 98.000 C 227.875 98.000,228.400 97.820,228.400 97.600 C 228.400 97.380,228.940 97.200,229.600 97.200 C 230.260 97.200,230.800 97.020,230.800 96.800 C 230.800 96.580,231.340 96.400,232.000 96.400 C 232.660 96.400,233.200 96.220,233.200 96.000 C 233.200 95.780,233.740 95.600,234.400 95.600 C 235.060 95.600,235.600 95.420,235.600 95.200 C 235.600 94.980,236.399 94.800,237.376 94.800 C 238.353 94.800,239.264 94.620,239.400 94.400 C 239.536 94.180,240.447 94.000,241.424 94.000 C 242.401 94.000,243.200 93.820,243.200 93.600 C 243.200 93.367,244.533 93.200,246.400 93.200 C 248.267 93.200,249.600 93.033,249.600 92.800 C 249.600 92.552,251.800 92.400,255.400 92.400 C 259.000 92.400,261.200 92.552,261.200 92.800 C 261.200 93.033,262.533 93.200,264.400 93.200 C 266.267 93.200,267.600 93.367,267.600 93.600 C 267.600 93.820,268.500 94.000,269.600 94.000 C 270.700 94.000,271.600 94.180,271.600 94.400 C 271.600 94.620,272.320 94.800,273.200 94.800 C 274.080 94.800,274.800 94.980,274.800 95.200 C 274.800 95.420,275.430 95.600,276.200 95.600 C 276.970 95.600,277.600 95.780,277.600 96.000 C 277.600 96.220,278.140 96.400,278.800 96.400 C 279.460 96.400,280.000 96.580,280.000 96.800 C 280.000 97.020,280.540 97.200,281.200 97.200 C 281.860 97.200,282.400 97.380,282.400 97.600 C 282.400 97.820,282.940 98.000,283.600 98.000 C 284.260 98.000,284.800 98.180,284.800 98.400 C 284.800 98.620,285.160 98.800,285.600 98.800 C 286.040 98.800,286.400 98.980,286.400 99.200 C 286.400 99.420,286.760 99.600,287.200 99.600 C 287.640 99.600,288.000 99.780,288.000 100.000 C 288.000 100.220,288.360 100.400,288.800 100.400 C 289.240 100.400,289.600 100.580,289.600 100.800 C 289.600 101.020,289.960 101.200,290.400 101.200 C 290.840 101.200,291.200 101.380,291.200 101.600 C 291.200 101.820,291.560 102.000,292.000 102.000 C 292.440 102.000,292.800 102.136,292.800 102.302 C 292.800 102.469,293.385 102.864,294.100 103.180 C 294.815 103.497,295.749 104.080,296.175 104.478 C 296.602 104.875,297.187 105.200,297.475 105.200 C 297.764 105.200,298.000 105.380,298.000 105.600 C 298.000 105.820,298.278 106.000,298.617 106.000 C 298.956 106.000,299.631 106.375,300.117 106.834 C 300.603 107.293,301.540 107.949,302.200 108.293 C 302.860 108.637,303.691 109.252,304.047 109.659 C 304.403 110.067,304.913 110.400,305.181 110.400 C 305.448 110.400,307.407 112.229,309.534 114.465 C 311.660 116.701,314.345 119.487,315.500 120.656 C 316.655 121.826,317.600 122.902,317.600 123.048 C 317.600 123.194,318.140 123.829,318.800 124.460 C 319.460 125.091,320.000 125.836,320.000 126.115 C 320.000 126.395,320.360 126.883,320.800 127.200 C 321.240 127.517,321.600 128.057,321.600 128.400 C 321.600 128.743,321.960 129.283,322.400 129.600 C 322.840 129.917,323.200 130.457,323.200 130.800 C 323.200 131.143,323.560 131.683,324.000 132.000 C 324.440 132.317,324.800 132.852,324.801 133.188 C 324.802 133.525,325.612 135.412,326.601 137.382 C 327.590 139.352,328.400 141.287,328.400 141.682 C 328.400 142.077,328.580 142.400,328.800 142.400 C 329.020 142.400,329.200 142.760,329.200 143.200 C 329.200 143.640,329.380 144.000,329.600 144.000 C 329.820 144.000,330.000 144.540,330.000 145.200 C 330.000 145.860,330.180 146.400,330.400 146.400 C 330.620 146.400,330.800 146.940,330.800 147.600 C 330.800 148.260,330.980 148.800,331.200 148.800 C 331.420 148.800,331.600 149.340,331.600 150.000 C 331.600 150.660,331.780 151.200,332.000 151.200 C 332.220 151.200,332.400 151.920,332.400 152.800 C 332.400 153.680,332.580 154.400,332.800 154.400 C 333.020 154.400,333.200 154.683,333.200 155.029 C 333.200 156.396,334.243 156.800,337.771 156.800 C 339.657 156.800,341.200 156.963,341.200 157.161 C 341.200 157.360,342.055 157.623,343.100 157.746 C 348.703 158.403,352.000 158.966,352.000 159.264 C 352.000 159.449,352.540 159.600,353.200 159.600 L 354.400 159.600 354.400 157.000 C 354.400 155.533,354.226 154.400,354.000 154.400 C 353.780 154.400,353.600 153.500,353.600 152.400 C 353.600 151.300,353.420 150.400,353.200 150.400 C 352.980 150.400,352.800 149.680,352.800 148.800 C 352.800 147.920,352.620 147.200,352.400 147.200 C 352.180 147.200,352.000 146.581,352.000 145.824 C 352.000 145.067,351.820 144.336,351.600 144.200 C 351.380 144.064,351.200 143.513,351.200 142.976 C 351.200 142.439,351.020 142.000,350.800 142.000 C 350.580 142.000,350.400 141.460,350.400 140.800 C 350.400 140.140,350.220 139.600,350.000 139.600 C 349.780 139.600,349.600 139.060,349.600 138.400 C 349.600 137.740,349.420 137.200,349.200 137.200 C 348.980 137.200,348.800 136.660,348.800 136.000 C 348.800 135.340,348.620 134.800,348.400 134.800 C 348.180 134.800,348.000 134.440,348.000 134.000 C 348.000 133.560,347.820 133.200,347.600 133.200 C 347.380 133.200,347.200 132.840,347.200 132.400 C 347.200 131.960,347.020 131.600,346.800 131.600 C 346.580 131.600,346.400 131.060,346.400 130.400 C 346.400 129.740,346.220 129.200,346.000 129.200 C 345.780 129.200,345.600 128.840,345.600 128.400 C 345.600 127.960,345.454 127.600,345.275 127.600 C 345.096 127.600,344.702 126.970,344.400 126.200 C 344.098 125.430,343.704 124.800,343.525 124.800 C 343.346 124.800,343.200 124.480,343.200 124.088 C 343.200 123.697,342.840 123.117,342.400 122.800 C 341.960 122.483,341.600 121.999,341.600 121.725 C 341.600 120.981,340.301 118.400,339.926 118.400 C 339.747 118.400,339.600 118.080,339.600 117.688 C 339.600 117.297,339.240 116.717,338.800 116.400 C 338.360 116.083,338.000 115.620,338.000 115.371 C 338.000 115.122,337.460 114.354,336.800 113.663 C 336.140 112.972,335.600 112.208,335.600 111.964 C 335.600 111.720,335.060 111.017,334.400 110.400 C 333.740 109.783,333.200 109.169,333.200 109.035 C 333.200 108.901,331.311 106.858,329.003 104.495 C 326.694 102.133,323.620 98.985,322.172 97.500 C 320.723 96.015,319.371 94.800,319.166 94.800 C 318.960 94.800,318.219 94.252,317.518 93.581 C 316.816 92.911,315.648 92.081,314.921 91.736 C 314.195 91.391,313.600 90.949,313.600 90.754 C 313.600 90.559,313.280 90.400,312.888 90.400 C 312.497 90.400,311.917 90.040,311.600 89.600 C 311.283 89.160,310.743 88.800,310.400 88.800 C 310.057 88.800,309.517 88.440,309.200 88.000 C 308.883 87.560,308.476 87.200,308.295 87.200 C 308.114 87.200,307.580 86.840,307.108 86.400 C 306.636 85.960,306.013 85.600,305.725 85.600 C 305.436 85.600,305.200 85.420,305.200 85.200 C 305.200 84.980,304.840 84.800,304.400 84.800 C 303.960 84.800,303.600 84.620,303.600 84.400 C 303.600 84.180,303.240 84.000,302.800 84.000 C 302.360 84.000,302.000 83.820,302.000 83.600 C 302.000 83.380,301.640 83.200,301.200 83.200 C 300.760 83.200,300.400 83.020,300.400 82.800 C 300.400 82.580,300.040 82.400,299.600 82.400 C 299.160 82.400,298.800 82.220,298.800 82.000 C 298.800 81.780,298.440 81.600,298.000 81.600 C 297.560 81.600,297.200 81.420,297.200 81.200 C 297.200 80.980,296.840 80.800,296.400 80.800 C 295.960 80.800,295.600 80.620,295.600 80.400 C 295.600 80.180,295.060 80.000,294.400 80.000 C 293.740 80.000,293.200 79.820,293.200 79.600 C 293.200 79.380,292.840 79.200,292.400 79.200 C 291.960 79.200,291.600 79.020,291.600 78.800 C 291.600 78.580,291.161 78.400,290.624 78.400 C 290.087 78.400,289.536 78.220,289.400 78.000 C 289.264 77.780,288.713 77.600,288.176 77.600 C 287.639 77.600,287.200 77.420,287.200 77.200 C 287.200 76.980,286.748 76.800,286.195 76.800 C 285.642 76.800,284.877 76.628,284.495 76.418 C 283.359 75.795,278.676 74.800,276.874 74.800 C 275.953 74.800,275.200 74.620,275.200 74.400 C 275.200 74.180,274.210 74.000,273.000 74.000 C 271.790 74.000,270.800 73.820,270.800 73.600 C 270.800 73.367,269.467 73.200,267.600 73.200 C 265.733 73.200,264.400 73.033,264.400 72.800 C 264.400 72.545,261.133 72.400,255.400 72.400 C 249.667 72.400,246.400 72.545,246.400 72.800 " stroke="none" fill="#040404" fill-rule="evenodd"></path></g></svg>
